<mxfile host="e8637911-1eb1-4b97-8538-60507041cbe0" modified="2020-07-21T12:53:11.927Z" agent="5.0 (Windows NT 6.1; Win64; x64) AppleWebKit/537.36 (KHTML, like Gecko) Code/1.47.2 Chrome/78.0.3904.130 Electron/7.3.2 Safari/537.36" etag="JX7X1DiA5C-iEeIxBE_W" version="13.1.3">
    <diagram id="Xc4Q_695MUWQkCUxAg5T" name="Page-1">
        <mxGraphModel dx="584" dy="1664" grid="1" gridSize="10" guides="1" tooltips="1" connect="1" arrows="1" fold="1" page="1" pageScale="1" pageWidth="827" pageHeight="1169" math="0" shadow="0">
            <root>
                <mxCell id="0"/>
                <mxCell id="1" parent="0"/>
                <mxCell id="NMuLRGsHbmPByHdPXfEs-1" value="" style="ellipse;whiteSpace=wrap;html=1;aspect=fixed;" parent="1" vertex="1">
                    <mxGeometry x="270" y="120" width="20" height="20" as="geometry"/>
                </mxCell>
                <mxCell id="NMuLRGsHbmPByHdPXfEs-2" value="" style="ellipse;whiteSpace=wrap;html=1;aspect=fixed;" parent="1" vertex="1">
                    <mxGeometry x="270" y="170" width="20" height="20" as="geometry"/>
                </mxCell>
                <mxCell id="NMuLRGsHbmPByHdPXfEs-3" value="" style="ellipse;whiteSpace=wrap;html=1;aspect=fixed;" parent="1" vertex="1">
                    <mxGeometry x="270" y="220" width="20" height="20" as="geometry"/>
                </mxCell>
                <mxCell id="NMuLRGsHbmPByHdPXfEs-4" value="" style="ellipse;whiteSpace=wrap;html=1;aspect=fixed;" parent="1" vertex="1">
                    <mxGeometry x="270" y="320" width="20" height="20" as="geometry"/>
                </mxCell>
                <mxCell id="NMuLRGsHbmPByHdPXfEs-8" value="" style="ellipse;whiteSpace=wrap;html=1;aspect=fixed;" parent="1" vertex="1">
                    <mxGeometry x="350" y="190" width="20" height="20" as="geometry"/>
                </mxCell>
                <mxCell id="NMuLRGsHbmPByHdPXfEs-16" value="" style="endArrow=classic;html=1;exitX=1;exitY=0.5;exitDx=0;exitDy=0;entryX=0;entryY=0.5;entryDx=0;entryDy=0;" parent="1" edge="1">
                    <mxGeometry width="50" height="50" relative="1" as="geometry">
                        <mxPoint x="290" y="280" as="sourcePoint"/>
                        <mxPoint x="350" y="250" as="targetPoint"/>
                    </mxGeometry>
                </mxCell>
                <mxCell id="NMuLRGsHbmPByHdPXfEs-17" value="" style="endArrow=classic;html=1;" parent="1" edge="1">
                    <mxGeometry width="50" height="50" relative="1" as="geometry">
                        <mxPoint x="280" y="170" as="sourcePoint"/>
                        <mxPoint x="280" y="140" as="targetPoint"/>
                    </mxGeometry>
                </mxCell>
                <mxCell id="NMuLRGsHbmPByHdPXfEs-18" value="" style="endArrow=classic;html=1;" parent="1" edge="1">
                    <mxGeometry width="50" height="50" relative="1" as="geometry">
                        <mxPoint x="279.83" y="220" as="sourcePoint"/>
                        <mxPoint x="279.83" y="190" as="targetPoint"/>
                    </mxGeometry>
                </mxCell>
                <mxCell id="NMuLRGsHbmPByHdPXfEs-19" value="" style="endArrow=classic;html=1;" parent="1" edge="1">
                    <mxGeometry width="50" height="50" relative="1" as="geometry">
                        <mxPoint x="279.83" y="270" as="sourcePoint"/>
                        <mxPoint x="279.83" y="240" as="targetPoint"/>
                    </mxGeometry>
                </mxCell>
                <mxCell id="NMuLRGsHbmPByHdPXfEs-20" value="" style="endArrow=classic;html=1;" parent="1" edge="1">
                    <mxGeometry width="50" height="50" relative="1" as="geometry">
                        <mxPoint x="279.83" y="320" as="sourcePoint"/>
                        <mxPoint x="279.83" y="290" as="targetPoint"/>
                    </mxGeometry>
                </mxCell>
                <mxCell id="NMuLRGsHbmPByHdPXfEs-21" value="" style="endArrow=classic;html=1;" parent="1" edge="1">
                    <mxGeometry width="50" height="50" relative="1" as="geometry">
                        <mxPoint x="279.83" y="370" as="sourcePoint"/>
                        <mxPoint x="279.83" y="340" as="targetPoint"/>
                    </mxGeometry>
                </mxCell>
                <mxCell id="NMuLRGsHbmPByHdPXfEs-22" value="" style="endArrow=classic;html=1;" parent="1" edge="1">
                    <mxGeometry width="50" height="50" relative="1" as="geometry">
                        <mxPoint x="359.83" y="240" as="sourcePoint"/>
                        <mxPoint x="359.83" y="210" as="targetPoint"/>
                    </mxGeometry>
                </mxCell>
                <mxCell id="NMuLRGsHbmPByHdPXfEs-23" value="" style="endArrow=classic;html=1;" parent="1" edge="1">
                    <mxGeometry width="50" height="50" relative="1" as="geometry">
                        <mxPoint x="359.83" y="190" as="sourcePoint"/>
                        <mxPoint x="359.83" y="160" as="targetPoint"/>
                    </mxGeometry>
                </mxCell>
                <mxCell id="NMuLRGsHbmPByHdPXfEs-25" value="" style="ellipse;whiteSpace=wrap;html=1;aspect=fixed;" parent="1" vertex="1">
                    <mxGeometry x="270" y="420" width="20" height="20" as="geometry"/>
                </mxCell>
                <mxCell id="NMuLRGsHbmPByHdPXfEs-26" value="" style="endArrow=classic;html=1;" parent="1" edge="1">
                    <mxGeometry width="50" height="50" relative="1" as="geometry">
                        <mxPoint x="279.8999999999999" y="419.9999999999999" as="sourcePoint"/>
                        <mxPoint x="279.8999999999999" y="389.9999999999999" as="targetPoint"/>
                    </mxGeometry>
                </mxCell>
                <mxCell id="NMuLRGsHbmPByHdPXfEs-27" value="C" style="text;html=1;strokeColor=none;fillColor=none;align=center;verticalAlign=middle;whiteSpace=wrap;rounded=0;fontStyle=1" parent="1" vertex="1">
                    <mxGeometry x="510" y="80" width="20" height="20" as="geometry"/>
                </mxCell>
                <mxCell id="NMuLRGsHbmPByHdPXfEs-28" value="B" style="text;html=1;strokeColor=none;fillColor=none;align=center;verticalAlign=middle;whiteSpace=wrap;rounded=0;fontStyle=1" parent="1" vertex="1">
                    <mxGeometry x="310" y="80" width="20" height="20" as="geometry"/>
                </mxCell>
                <mxCell id="NMuLRGsHbmPByHdPXfEs-30" value="" style="ellipse;whiteSpace=wrap;html=1;aspect=fixed;" parent="1" vertex="1">
                    <mxGeometry x="470" y="170" width="20" height="20" as="geometry"/>
                </mxCell>
                <mxCell id="NMuLRGsHbmPByHdPXfEs-31" value="" style="ellipse;whiteSpace=wrap;html=1;aspect=fixed;" parent="1" vertex="1">
                    <mxGeometry x="470" y="220" width="20" height="20" as="geometry"/>
                </mxCell>
                <mxCell id="NMuLRGsHbmPByHdPXfEs-32" value="" style="ellipse;whiteSpace=wrap;html=1;aspect=fixed;" parent="1" vertex="1">
                    <mxGeometry x="470" y="320" width="20" height="20" as="geometry"/>
                </mxCell>
                <mxCell id="NMuLRGsHbmPByHdPXfEs-34" value="" style="ellipse;whiteSpace=wrap;html=1;aspect=fixed;fillColor=none;" parent="1" vertex="1">
                    <mxGeometry x="470" y="370" width="20" height="20" as="geometry"/>
                </mxCell>
                <mxCell id="NMuLRGsHbmPByHdPXfEs-36" value="" style="ellipse;whiteSpace=wrap;html=1;aspect=fixed;" parent="1" vertex="1">
                    <mxGeometry x="550" y="190" width="20" height="20" as="geometry"/>
                </mxCell>
                <mxCell id="NMuLRGsHbmPByHdPXfEs-39" value="" style="endArrow=classic;html=1;exitX=1;exitY=0.5;exitDx=0;exitDy=0;entryX=0;entryY=0.5;entryDx=0;entryDy=0;" parent="1" edge="1">
                    <mxGeometry width="50" height="50" relative="1" as="geometry">
                        <mxPoint x="490" y="280" as="sourcePoint"/>
                        <mxPoint x="550" y="250" as="targetPoint"/>
                    </mxGeometry>
                </mxCell>
                <mxCell id="NMuLRGsHbmPByHdPXfEs-40" value="" style="endArrow=classic;html=1;" parent="1" edge="1">
                    <mxGeometry width="50" height="50" relative="1" as="geometry">
                        <mxPoint x="480" y="170" as="sourcePoint"/>
                        <mxPoint x="480" y="140.00000000000006" as="targetPoint"/>
                    </mxGeometry>
                </mxCell>
                <mxCell id="NMuLRGsHbmPByHdPXfEs-41" value="" style="endArrow=classic;html=1;" parent="1" edge="1">
                    <mxGeometry width="50" height="50" relative="1" as="geometry">
                        <mxPoint x="479.83000000000004" y="220" as="sourcePoint"/>
                        <mxPoint x="479.83000000000004" y="190" as="targetPoint"/>
                    </mxGeometry>
                </mxCell>
                <mxCell id="NMuLRGsHbmPByHdPXfEs-42" value="" style="endArrow=classic;html=1;" parent="1" edge="1">
                    <mxGeometry width="50" height="50" relative="1" as="geometry">
                        <mxPoint x="479.83000000000004" y="270" as="sourcePoint"/>
                        <mxPoint x="479.83000000000004" y="240" as="targetPoint"/>
                    </mxGeometry>
                </mxCell>
                <mxCell id="NMuLRGsHbmPByHdPXfEs-43" value="" style="endArrow=classic;html=1;" parent="1" edge="1">
                    <mxGeometry width="50" height="50" relative="1" as="geometry">
                        <mxPoint x="479.83000000000004" y="320" as="sourcePoint"/>
                        <mxPoint x="479.83000000000004" y="290" as="targetPoint"/>
                    </mxGeometry>
                </mxCell>
                <mxCell id="NMuLRGsHbmPByHdPXfEs-44" value="" style="endArrow=classic;html=1;" parent="1" edge="1">
                    <mxGeometry width="50" height="50" relative="1" as="geometry">
                        <mxPoint x="479.83000000000004" y="370" as="sourcePoint"/>
                        <mxPoint x="479.83000000000004" y="340" as="targetPoint"/>
                    </mxGeometry>
                </mxCell>
                <mxCell id="NMuLRGsHbmPByHdPXfEs-45" value="" style="endArrow=classic;html=1;" parent="1" edge="1">
                    <mxGeometry width="50" height="50" relative="1" as="geometry">
                        <mxPoint x="559.8299999999999" y="240" as="sourcePoint"/>
                        <mxPoint x="559.8299999999999" y="210" as="targetPoint"/>
                    </mxGeometry>
                </mxCell>
                <mxCell id="NMuLRGsHbmPByHdPXfEs-46" value="" style="endArrow=classic;html=1;" parent="1" edge="1">
                    <mxGeometry width="50" height="50" relative="1" as="geometry">
                        <mxPoint x="559.8299999999999" y="190" as="sourcePoint"/>
                        <mxPoint x="559.8299999999999" y="160" as="targetPoint"/>
                    </mxGeometry>
                </mxCell>
                <mxCell id="NMuLRGsHbmPByHdPXfEs-47" value="" style="ellipse;whiteSpace=wrap;html=1;aspect=fixed;" parent="1" vertex="1">
                    <mxGeometry x="470" y="420" width="20" height="20" as="geometry"/>
                </mxCell>
                <mxCell id="NMuLRGsHbmPByHdPXfEs-48" value="" style="endArrow=classic;html=1;" parent="1" edge="1">
                    <mxGeometry width="50" height="50" relative="1" as="geometry">
                        <mxPoint x="479.89999999999986" y="419.9999999999999" as="sourcePoint"/>
                        <mxPoint x="479.89999999999986" y="389.9999999999999" as="targetPoint"/>
                    </mxGeometry>
                </mxCell>
                <mxCell id="strLqKQMPGYc9VxBI_WH-1" value="" style="ellipse;whiteSpace=wrap;html=1;aspect=fixed;fillColor=#FF0000;" parent="1" vertex="1">
                    <mxGeometry x="350" y="240" width="20" height="20" as="geometry"/>
                </mxCell>
                <mxCell id="strLqKQMPGYc9VxBI_WH-2" value="1" style="ellipse;whiteSpace=wrap;html=1;aspect=fixed;fillColor=#00CC00;" parent="1" vertex="1">
                    <mxGeometry x="270" y="370" width="20" height="20" as="geometry"/>
                </mxCell>
                <mxCell id="strLqKQMPGYc9VxBI_WH-3" value="" style="ellipse;whiteSpace=wrap;html=1;aspect=fixed;fillColor=#FF0000;" parent="1" vertex="1">
                    <mxGeometry x="270" y="270" width="20" height="20" as="geometry"/>
                </mxCell>
                <mxCell id="strLqKQMPGYc9VxBI_WH-4" value="2" style="ellipse;whiteSpace=wrap;html=1;aspect=fixed;fillColor=#00CC00;" parent="1" vertex="1">
                    <mxGeometry x="350" y="140" width="20" height="20" as="geometry"/>
                </mxCell>
                <mxCell id="strLqKQMPGYc9VxBI_WH-6" value="" style="ellipse;whiteSpace=wrap;html=1;aspect=fixed;fillColor=#FF0000;" parent="1" vertex="1">
                    <mxGeometry x="470" y="270" width="20" height="20" as="geometry"/>
                </mxCell>
                <mxCell id="strLqKQMPGYc9VxBI_WH-7" value="" style="ellipse;whiteSpace=wrap;html=1;aspect=fixed;fillColor=#FF0000;" parent="1" vertex="1">
                    <mxGeometry x="550" y="240" width="20" height="20" as="geometry"/>
                </mxCell>
                <mxCell id="strLqKQMPGYc9VxBI_WH-8" value="2" style="ellipse;whiteSpace=wrap;html=1;aspect=fixed;fillColor=#00CC00;" parent="1" vertex="1">
                    <mxGeometry x="550" y="140" width="20" height="20" as="geometry"/>
                </mxCell>
                <mxCell id="strLqKQMPGYc9VxBI_WH-9" value="1" style="ellipse;whiteSpace=wrap;html=1;aspect=fixed;fillColor=#00CC00;" parent="1" vertex="1">
                    <mxGeometry x="470" y="120" width="20" height="20" as="geometry"/>
                </mxCell>
                <mxCell id="strLqKQMPGYc9VxBI_WH-12" value="" style="ellipse;whiteSpace=wrap;html=1;aspect=fixed;" parent="1" vertex="1">
                    <mxGeometry x="110" y="170" width="20" height="20" as="geometry"/>
                </mxCell>
                <mxCell id="strLqKQMPGYc9VxBI_WH-13" value="" style="ellipse;whiteSpace=wrap;html=1;aspect=fixed;" parent="1" vertex="1">
                    <mxGeometry x="110" y="220" width="20" height="20" as="geometry"/>
                </mxCell>
                <mxCell id="strLqKQMPGYc9VxBI_WH-14" value="" style="ellipse;whiteSpace=wrap;html=1;aspect=fixed;" parent="1" vertex="1">
                    <mxGeometry x="110" y="320" width="20" height="20" as="geometry"/>
                </mxCell>
                <mxCell id="strLqKQMPGYc9VxBI_WH-17" value="" style="endArrow=classic;html=1;" parent="1" edge="1">
                    <mxGeometry width="50" height="50" relative="1" as="geometry">
                        <mxPoint x="120" y="170" as="sourcePoint"/>
                        <mxPoint x="120" y="140" as="targetPoint"/>
                    </mxGeometry>
                </mxCell>
                <mxCell id="strLqKQMPGYc9VxBI_WH-18" value="" style="endArrow=classic;html=1;" parent="1" edge="1">
                    <mxGeometry width="50" height="50" relative="1" as="geometry">
                        <mxPoint x="119.82999999999993" y="220" as="sourcePoint"/>
                        <mxPoint x="119.82999999999993" y="190" as="targetPoint"/>
                    </mxGeometry>
                </mxCell>
                <mxCell id="strLqKQMPGYc9VxBI_WH-19" value="" style="endArrow=classic;html=1;" parent="1" edge="1">
                    <mxGeometry width="50" height="50" relative="1" as="geometry">
                        <mxPoint x="119.82999999999993" y="270" as="sourcePoint"/>
                        <mxPoint x="119.82999999999993" y="240" as="targetPoint"/>
                    </mxGeometry>
                </mxCell>
                <mxCell id="strLqKQMPGYc9VxBI_WH-20" value="" style="endArrow=classic;html=1;" parent="1" edge="1">
                    <mxGeometry width="50" height="50" relative="1" as="geometry">
                        <mxPoint x="119.82999999999993" y="320" as="sourcePoint"/>
                        <mxPoint x="119.82999999999993" y="290" as="targetPoint"/>
                    </mxGeometry>
                </mxCell>
                <mxCell id="strLqKQMPGYc9VxBI_WH-21" value="" style="endArrow=classic;html=1;" parent="1" edge="1">
                    <mxGeometry width="50" height="50" relative="1" as="geometry">
                        <mxPoint x="119.82999999999993" y="370" as="sourcePoint"/>
                        <mxPoint x="119.82999999999993" y="340" as="targetPoint"/>
                    </mxGeometry>
                </mxCell>
                <mxCell id="strLqKQMPGYc9VxBI_WH-24" value="" style="ellipse;whiteSpace=wrap;html=1;aspect=fixed;" parent="1" vertex="1">
                    <mxGeometry x="110" y="420" width="20" height="20" as="geometry"/>
                </mxCell>
                <mxCell id="strLqKQMPGYc9VxBI_WH-25" value="" style="endArrow=classic;html=1;" parent="1" edge="1">
                    <mxGeometry width="50" height="50" relative="1" as="geometry">
                        <mxPoint x="119.89999999999986" y="419.9999999999999" as="sourcePoint"/>
                        <mxPoint x="119.89999999999986" y="389.9999999999999" as="targetPoint"/>
                    </mxGeometry>
                </mxCell>
                <mxCell id="strLqKQMPGYc9VxBI_WH-26" value="A" style="text;html=1;strokeColor=none;fillColor=none;align=center;verticalAlign=middle;whiteSpace=wrap;rounded=0;fontStyle=1" parent="1" vertex="1">
                    <mxGeometry x="110" y="80" width="20" height="20" as="geometry"/>
                </mxCell>
                <mxCell id="strLqKQMPGYc9VxBI_WH-28" value="1" style="ellipse;whiteSpace=wrap;html=1;aspect=fixed;fillColor=#00CC00;" parent="1" vertex="1">
                    <mxGeometry x="110" y="370" width="20" height="20" as="geometry"/>
                </mxCell>
                <mxCell id="strLqKQMPGYc9VxBI_WH-30" value="2" style="ellipse;whiteSpace=wrap;html=1;aspect=fixed;fillColor=#00CC00;" parent="1" vertex="1">
                    <mxGeometry x="110" y="120" width="20" height="20" as="geometry"/>
                </mxCell>
                <mxCell id="2" value="" style="ellipse;whiteSpace=wrap;html=1;aspect=fixed;fillColor=#FF0000;" vertex="1" parent="1">
                    <mxGeometry x="110" y="270" width="20" height="20" as="geometry"/>
                </mxCell>
            </root>
        </mxGraphModel>
    </diagram>
</mxfile>
